<?xml version="1.0" standalone="no"?>
<!DOCTYPE svg PUBLIC "-//W3C//DTD SVG 1.1//EN" "http://www.w3.org/Graphics/SVG/1.1/DTD/svg11.dtd">
<svg xmlns="http://www.w3.org/2000/svg" xmlns:xlink="http://www.w3.org/1999/xlink" width="258" zoomAndPan="magnify" viewBox="0 0 258 155.999994" height="156" preserveAspectRatio="xMidYMid meet" version="1.0"><defs><g/><clipPath id="36b8b160a0"><path d="M 8.511719 39.40625 L 249.253906 39.40625 L 249.253906 118.90625 L 8.511719 118.90625 Z M 8.511719 39.40625 " clip-rule="nonzero"/></clipPath><clipPath id="efb09a2c6b"><path d="M 16.011719 39.40625 L 241.933594 39.40625 C 243.921875 39.40625 245.828125 40.195312 247.234375 41.601562 C 248.640625 43.007812 249.433594 44.917969 249.433594 46.90625 L 249.433594 111.699219 C 249.433594 113.6875 248.640625 115.597656 247.234375 117.003906 C 245.828125 118.410156 243.921875 119.199219 241.933594 119.199219 L 16.011719 119.199219 C 14.023438 119.199219 12.117188 118.410156 10.710938 117.003906 C 9.304688 115.597656 8.511719 113.6875 8.511719 111.699219 L 8.511719 46.90625 C 8.511719 44.917969 9.304688 43.007812 10.710938 41.601562 C 12.117188 40.195312 14.023438 39.40625 16.011719 39.40625 Z M 16.011719 39.40625 " clip-rule="nonzero"/></clipPath></defs><g clip-path="url(#36b8b160a0)"><g clip-path="url(#efb09a2c6b)"><path stroke-linecap="butt" transform="matrix(0.75, 0, 0, 0.75, 8.513596, 39.406256)" fill="none" stroke-linejoin="miter" d="M 9.997499 -0.00000746993 L 311.226709 -0.00000746993 C 313.877751 -0.00000746993 316.419418 1.052076 318.294418 2.927076 C 320.169419 4.802077 321.226711 7.348952 321.226711 9.999994 L 321.226711 96.390631 C 321.226711 99.041673 320.169419 101.588549 318.294418 103.463549 C 316.419418 105.338549 313.877751 106.390633 311.226709 106.390633 L 9.997499 106.390633 C 7.346457 106.390633 4.80479 105.338549 2.92979 103.463549 C 1.054789 101.588549 -0.00250241 99.041673 -0.00250241 96.390631 L -0.00250241 9.999994 C -0.00250241 7.348952 1.054789 4.802077 2.92979 2.927076 C 4.80479 1.052076 7.346457 -0.00000746993 9.997499 -0.00000746993 Z M 9.997499 -0.00000746993 " stroke="#000000" stroke-width="14" stroke-opacity="1" stroke-miterlimit="4"/></g></g><g fill="#000000" fill-opacity="1"><g transform="translate(34.576368, 92.952764)"><g><path d="M 34.765625 -14.71875 L 32.484375 -9.203125 C 31.117188 -9.921875 29.585938 -10.644531 27.890625 -11.375 C 26.203125 -12.113281 24.5 -12.804688 22.78125 -13.453125 C 21.0625 -14.109375 19.484375 -14.675781 18.046875 -15.15625 L 18.046875 -3.84375 C 18.046875 -3.46875 18.0625 -2.9375 18.09375 -2.25 C 18.132812 -1.570312 18.179688 -0.875 18.234375 -0.15625 C 18.285156 0.5625 18.34375 1.1875 18.40625 1.71875 L 12.15625 1.71875 C 12.289062 0.945312 12.390625 0.03125 12.453125 -1.03125 C 12.523438 -2.101562 12.5625 -3.039062 12.5625 -3.84375 L 12.5625 -26.796875 C 12.5625 -27.515625 12.523438 -28.328125 12.453125 -29.234375 C 12.390625 -30.140625 12.289062 -30.941406 12.15625 -31.640625 L 18.40625 -31.640625 C 18.320312 -30.941406 18.238281 -30.171875 18.15625 -29.328125 C 18.082031 -28.492188 18.046875 -27.648438 18.046875 -26.796875 L 18.046875 -20.921875 C 19.378906 -20.515625 20.820312 -20.050781 22.375 -19.53125 C 23.9375 -19.019531 25.488281 -18.476562 27.03125 -17.90625 C 28.582031 -17.332031 30.03125 -16.769531 31.375 -16.21875 C 32.726562 -15.675781 33.859375 -15.175781 34.765625 -14.71875 Z M 34.765625 -14.71875 "/></g></g></g><g fill="#000000" fill-opacity="1"><g transform="translate(71.772376, 92.952764)"><g><path d="M 31.4375 -25.203125 L 34.875 -23.515625 C 34.820312 -23.171875 34.757812 -22.785156 34.6875 -22.359375 C 34.625 -21.929688 34.59375 -21.613281 34.59375 -21.40625 C 34.570312 -20.550781 34.523438 -19.457031 34.453125 -18.125 C 34.390625 -16.789062 34.304688 -15.351562 34.203125 -13.8125 C 34.097656 -12.28125 33.957031 -10.753906 33.78125 -9.234375 C 33.601562 -7.710938 33.390625 -6.304688 33.140625 -5.015625 C 32.890625 -3.722656 32.585938 -2.664062 32.234375 -1.84375 C 31.804688 -0.820312 31.1875 -0.0546875 30.375 0.453125 C 29.5625 0.972656 28.460938 1.234375 27.078125 1.234375 C 25.929688 1.234375 24.785156 1.203125 23.640625 1.140625 C 22.492188 1.078125 21.425781 1.003906 20.4375 0.921875 L 19.84375 -4.4375 C 20.820312 -4.25 21.804688 -4.109375 22.796875 -4.015625 C 23.785156 -3.921875 24.664062 -3.875 25.4375 -3.875 C 26.082031 -3.875 26.570312 -3.988281 26.90625 -4.21875 C 27.238281 -4.445312 27.507812 -4.800781 27.71875 -5.28125 C 28.007812 -5.914062 28.257812 -6.832031 28.46875 -8.03125 C 28.6875 -9.238281 28.863281 -10.566406 29 -12.015625 C 29.132812 -13.472656 29.234375 -14.921875 29.296875 -16.359375 C 29.367188 -17.796875 29.40625 -19.050781 29.40625 -20.125 L 20.40625 -20.125 C 19.925781 -16.601562 19.164062 -13.515625 18.125 -10.859375 C 17.082031 -8.203125 15.726562 -5.851562 14.0625 -3.8125 C 12.394531 -1.78125 10.359375 0.0859375 7.953125 1.796875 L 3.3125 -1.953125 C 4.164062 -2.410156 5.050781 -2.972656 5.96875 -3.640625 C 6.894531 -4.304688 7.757812 -5.050781 8.5625 -5.875 C 10.425781 -7.71875 11.882812 -9.789062 12.9375 -12.09375 C 13.988281 -14.40625 14.726562 -17.082031 15.15625 -20.125 L 9.875 -20.125 C 9.207031 -20.125 8.375 -20.113281 7.375 -20.09375 C 6.375 -20.082031 5.445312 -20.035156 4.59375 -19.953125 L 4.59375 -25.203125 C 5.445312 -25.117188 6.351562 -25.050781 7.3125 -25 C 8.28125 -24.945312 9.132812 -24.921875 9.875 -24.921875 L 15.59375 -24.921875 C 15.625 -25.484375 15.644531 -26.054688 15.65625 -26.640625 C 15.675781 -27.222656 15.6875 -27.8125 15.6875 -28.40625 C 15.6875 -28.851562 15.65625 -29.457031 15.59375 -30.21875 C 15.539062 -30.976562 15.476562 -31.597656 15.40625 -32.078125 L 21.28125 -32.078125 C 21.226562 -31.628906 21.179688 -31.039062 21.140625 -30.3125 C 21.097656 -29.59375 21.066406 -28.992188 21.046875 -28.515625 C 21.015625 -27.898438 20.988281 -27.289062 20.96875 -26.6875 C 20.957031 -26.09375 20.925781 -25.503906 20.875 -24.921875 L 28.40625 -24.921875 C 28.90625 -24.921875 29.410156 -24.945312 29.921875 -25 C 30.429688 -25.050781 30.9375 -25.117188 31.4375 -25.203125 Z M 31.4375 -25.203125 "/></g></g></g><g fill="#000000" fill-opacity="1"><g transform="translate(108.968384, 92.952764)"><g><path d="M 24.796875 -19.84375 L 24.796875 -3.484375 C 24.796875 -2.890625 24.804688 -2.253906 24.828125 -1.578125 C 24.859375 -0.898438 24.898438 -0.265625 24.953125 0.328125 C 25.015625 0.929688 25.082031 1.410156 25.15625 1.765625 L 18.84375 1.765625 C 18.894531 1.441406 18.941406 0.976562 18.984375 0.375 C 19.023438 -0.21875 19.054688 -0.859375 19.078125 -1.546875 C 19.109375 -2.242188 19.125 -2.890625 19.125 -3.484375 L 19.125 -16.59375 C 17.070312 -15.5625 14.84375 -14.554688 12.4375 -13.578125 C 10.039062 -12.609375 7.679688 -11.800781 5.359375 -11.15625 L 2.484375 -16.046875 C 4.828125 -16.546875 7.101562 -17.1875 9.3125 -17.96875 C 11.53125 -18.757812 13.601562 -19.613281 15.53125 -20.53125 C 17.46875 -21.457031 19.1875 -22.375 20.6875 -23.28125 C 22.039062 -24.132812 23.367188 -25.066406 24.671875 -26.078125 C 25.984375 -27.085938 27.195312 -28.132812 28.3125 -29.21875 C 29.4375 -30.300781 30.375 -31.332031 31.125 -32.3125 L 35.40625 -28.4375 C 33.882812 -26.914062 32.226562 -25.421875 30.4375 -23.953125 C 28.65625 -22.492188 26.773438 -21.125 24.796875 -19.84375 Z M 24.796875 -19.84375 "/></g></g></g><g fill="#000000" fill-opacity="1"><g transform="translate(146.164392, 92.952764)"><g><path d="M 14.6875 -16.875 L 15.28125 -12.515625 C 14.582031 -12.328125 13.875 -12.132812 13.15625 -11.9375 C 12.4375 -11.738281 11.71875 -11.546875 11 -11.359375 L 11 -1.796875 C 11 -0.648438 10.867188 0.238281 10.609375 0.875 C 10.359375 1.519531 9.890625 2.03125 9.203125 2.40625 C 8.535156 2.75 7.710938 2.972656 6.734375 3.078125 C 5.765625 3.179688 4.570312 3.234375 3.15625 3.234375 C 3.050781 2.617188 2.867188 1.898438 2.609375 1.078125 C 2.359375 0.253906 2.085938 -0.460938 1.796875 -1.078125 C 2.566406 -1.054688 3.3125 -1.046875 4.03125 -1.046875 C 4.757812 -1.046875 5.253906 -1.046875 5.515625 -1.046875 C 5.804688 -1.046875 6.003906 -1.101562 6.109375 -1.21875 C 6.222656 -1.34375 6.28125 -1.550781 6.28125 -1.84375 L 6.28125 -10.078125 L 2.40625 -9.125 L 1.15625 -13.640625 C 1.90625 -13.773438 2.707031 -13.941406 3.5625 -14.140625 C 4.414062 -14.335938 5.320312 -14.554688 6.28125 -14.796875 L 6.28125 -21.875 L 1.6875 -21.875 L 1.6875 -26.28125 L 6.28125 -26.28125 L 6.28125 -33.875 L 11 -33.875 L 11 -26.28125 L 14.921875 -26.28125 L 14.921875 -21.875 L 11 -21.875 L 11 -15.953125 Z M 31.40625 -14.71875 L 21.6875 -14.71875 C 22.800781 -12.050781 24.375 -9.691406 26.40625 -7.640625 C 27.4375 -8.648438 28.378906 -9.742188 29.234375 -10.921875 C 30.085938 -12.097656 30.8125 -13.363281 31.40625 -14.71875 Z M 34.40625 -19.203125 L 37.4375 -17.921875 C 36.6875 -15.148438 35.675781 -12.660156 34.40625 -10.453125 C 33.144531 -8.253906 31.675781 -6.316406 30 -4.640625 C 31.300781 -3.734375 32.71875 -2.945312 34.25 -2.28125 C 35.789062 -1.613281 37.453125 -1.050781 39.234375 -0.59375 C 38.734375 -0.113281 38.1875 0.535156 37.59375 1.359375 C 37.007812 2.179688 36.546875 2.898438 36.203125 3.515625 C 34.253906 2.929688 32.453125 2.222656 30.796875 1.390625 C 29.140625 0.566406 27.617188 -0.398438 26.234375 -1.515625 C 24.691406 -0.453125 23.039062 0.484375 21.28125 1.296875 C 19.519531 2.109375 17.664062 2.8125 15.71875 3.40625 C 15.445312 2.757812 15.066406 2.003906 14.578125 1.140625 C 14.085938 0.273438 13.613281 -0.410156 13.15625 -0.921875 C 14.914062 -1.347656 16.601562 -1.878906 18.21875 -2.515625 C 19.832031 -3.160156 21.332031 -3.9375 22.71875 -4.84375 C 20.375 -7.507812 18.484375 -10.679688 17.046875 -14.359375 L 18.234375 -14.71875 L 16.15625 -14.71875 L 16.15625 -19 L 24.046875 -19 L 24.046875 -23.796875 L 15.4375 -23.796875 L 15.4375 -28.203125 L 24.046875 -28.203125 L 24.046875 -33.921875 L 28.765625 -33.921875 L 28.765625 -28.203125 L 37.71875 -28.203125 L 37.71875 -23.796875 L 28.765625 -23.796875 L 28.765625 -19 L 33.5625 -19 Z M 34.40625 -19.203125 "/></g></g></g><g fill="#000000" fill-opacity="1"><g transform="translate(183.360399, 92.952764)"><g><path d="M 11.796875 -5.515625 L 11.796875 -15.515625 L 8.203125 -15.515625 L 8.203125 -5.515625 Z M 16.359375 -27.6875 L 10.484375 -27.6875 C 9.953125 -24.9375 9.242188 -22.28125 8.359375 -19.71875 L 15.84375 -19.71875 L 15.84375 -1.3125 L 8.203125 -1.3125 L 8.203125 1.59375 L 4.234375 1.59375 L 4.234375 -10.84375 C 3.972656 -10.46875 3.707031 -10.09375 3.4375 -9.71875 C 3.175781 -9.34375 2.894531 -8.984375 2.59375 -8.640625 C 2.539062 -9.066406 2.425781 -9.640625 2.25 -10.359375 C 2.082031 -11.078125 1.882812 -11.800781 1.65625 -12.53125 C 1.425781 -13.269531 1.207031 -13.863281 1 -14.3125 C 2.226562 -15.96875 3.253906 -17.957031 4.078125 -20.28125 C 4.898438 -22.601562 5.566406 -25.070312 6.078125 -27.6875 L 1.84375 -27.6875 L 1.84375 -32 L 16.359375 -32 Z M 25.484375 -17.59375 L 29.953125 -17.59375 L 29.953125 -27.484375 L 25.484375 -27.484375 Z M 38.6875 -17.59375 L 38.6875 -13.125 L 34.484375 -13.125 L 34.484375 3.515625 L 29.953125 3.515625 L 29.953125 -13.125 L 25.40625 -13.125 C 25.320312 -11.175781 25.101562 -9.175781 24.75 -7.125 C 24.40625 -5.070312 23.851562 -3.101562 23.09375 -1.21875 C 22.332031 0.65625 21.257812 2.328125 19.875 3.796875 C 19.476562 3.367188 18.910156 2.875 18.171875 2.3125 C 17.441406 1.757812 16.8125 1.335938 16.28125 1.046875 C 17.425781 -0.210938 18.320312 -1.628906 18.96875 -3.203125 C 19.625 -4.773438 20.097656 -6.414062 20.390625 -8.125 C 20.691406 -9.832031 20.878906 -11.5 20.953125 -13.125 L 17.234375 -13.125 L 17.234375 -17.59375 L 21.046875 -17.59375 L 21.046875 -27.484375 L 18.28125 -27.484375 L 18.28125 -31.875 L 37.875 -31.875 L 37.875 -27.484375 L 34.484375 -27.484375 L 34.484375 -17.59375 Z M 38.6875 -17.59375 "/></g></g></g></svg>